PathFileType	4	(X/Y/Z)	s06c0402.trc
DataRate	CameraRate	NumFrames	NumMarkers	Units	OrigDataRate	OrigDataStartFrame	OrigNumFrames
200	200	7	48	mm	200	1500	2000
Frame#	Time	racr			lacr			c7			jug			rlel			rdr			llel			ldr			s2			lic			ric			lasi			rasi			rpsi			lpsi			rgt			lgt			rth1			rth2			rth3			rth4			rlfc			rmfc			rsh1			rsh2			rsh3			rsh4			rlmal			rcal			rtoe			rmt5			lth1			lth2			lth4			lth3			llfc			lmfc			llmal			lcal			lmt5			lsh1			lsh2			lsh3			lsh4			ltoe			SBIKE			LBIKE			RBIKE			
		X1	Y1	Z1	X2	Y2	Z2	X3	Y3	Z3	X4	Y4	Z4	X5	Y5	Z5	X6	Y6	Z6	X7	Y7	Z7	X8	Y8	Z8	X9	Y9	Z9	X10	Y10	Z10	X11	Y11	Z11	X12	Y12	Z12	X13	Y13	Z13	X14	Y14	Z14	X15	Y15	Z15	X16	Y16	Z16	X17	Y17	Z17	X18	Y18	Z18	X19	Y19	Z19	X20	Y20	Z20	X21	Y21	Z21	X22	Y22	Z22	X23	Y23	Z23	X24	Y24	Z24	X25	Y25	Z25	X26	Y26	Z26	X27	Y27	Z27	X28	Y28	Z28	X29	Y29	Z29	X30	Y30	Z30	X31	Y31	Z31	X32	Y32	Z32	X33	Y33	Z33	X34	Y34	Z34	X35	Y35	Z35	X36	Y36	Z36	X37	Y37	Z37	X38	Y38	Z38	X39	Y39	Z39	X40	Y40	Z40	X41	Y41	Z41	X42	Y42	Z42	X43	Y43	Z43	X44	Y44	Z44	X45	Y45	Z45	X46	Y46	Z46	X47	Y47	Z47	X48	Y48	Z48	
1500	7.5000	781.963386	1223.310890	-90.284393	788.050756	1181.827105	-412.218551	820.227410	1286.954519	-257.987327	738.175630	1137.092813	-245.671823	574.054743	1106.475195	61.202815	686.446515	944.995985	-39.390313	571.351086	1070.741558	-547.834616	668.058018	931.810537	-419.752944	230.735156	1221.743217	-220.206925	366.367851	1186.751911	-400.707337	376.366513	1129.426435	-70.307310	387.676192	1119.925642	-385.311953	391.390235	1086.158361	-111.811508	274.326054	1244.302508	-183.101476	271.159799	1256.499755	-243.380963	301.675951	1051.273207	-54.978398	352.255589	1152.101185	-424.031659	312.705345	928.983153	-37.755991	327.343005	839.646950	-40.950265	297.259166	758.844898	-48.016896	363.584039	838.346647	-53.207015	277.762272	652.365142	-58.425319	274.093156	625.120161	-172.375128	228.402738	540.591762	-32.388335	219.529265	455.012815	-48.723969	170.250179	383.154748	-53.076231	245.728306	448.639688	-77.845414	138.045949	313.298629	-60.276140	87.190155	338.529377	-110.171290	221.330167	96.741536	-93.467640	149.722067	170.046213	-31.723202	408.450479	1053.091940	-438.127340	485.689156	1013.487792	-427.747645	506.504470	1037.268609	-406.544794	534.626576	937.945550	-426.326104	578.656448	830.723312	-393.264665	573.679476	817.357509	-272.833475	282.943957	590.165672	-388.353594	200.230491	600.304229	-345.146671	346.788953	463.879864	-407.583609	499.798851	754.552881	-413.389806	446.308413	687.708508	-396.881166	365.153416	651.631621	-397.776731	464.587225	670.119183	-367.252059	420.724776	425.636812	-344.340744	-156.762872	855.833195	-223.208575	-49.176201	80.056017	-415.414571	-49.230254	80.248554	-18.039171	
1501	7.5050	782.963381	1221.892444	-90.722749	788.144412	1179.225473	-411.761712	821.714408	1285.917173	-258.780056	738.492800	1136.581472	-246.122251	575.015588	1106.282689	60.946408	686.129762	944.119267	-39.464375	570.408365	1070.406793	-547.570937	667.185332	931.951810	-419.138852	231.709714	1225.308843	-221.322451	366.401896	1188.423274	-401.381163	375.043580	1133.179334	-69.712245	387.685261	1119.601907	-385.434569	390.617163	1089.014966	-111.710062	275.094516	1247.956035	-184.289289	272.191724	1259.926909	-244.708465	301.087701	1054.164350	-55.451501	351.988582	1154.213865	-424.457984	316.032617	930.722552	-38.462108	333.193711	841.777108	-42.448628	305.683186	759.926456	-49.565736	369.421346	841.283356	-54.433541	286.717329	653.013689	-59.885234	280.431220	626.775626	-172.905251	232.726439	543.174222	-33.383030	219.948589	458.436111	-50.220659	167.559241	388.615389	-54.509602	245.481451	450.970086	-79.668883	132.122473	320.087993	-61.481978	81.022222	345.881198	-111.155621	211.768451	102.545063	-92.880266	140.762363	176.921696	-32.198307	406.761520	1054.777954	-439.264738	483.581403	1014.017330	-428.333826	504.270948	1037.580123	-407.388090	531.515260	938.060670	-427.246947	574.329576	829.321070	-394.591094	569.766236	815.237221	-274.254276	283.690756	581.254127	-388.553547	200.100965	587.936935	-345.023023	353.515316	459.045495	-407.826545	495.610624	751.627067	-414.754116	444.058827	683.343468	-398.174067	363.797678	645.182767	-398.539804	462.923758	666.068122	-368.781453	429.777697	425.338041	-345.278030	-156.873435	855.875192	-223.421707	-49.178370	80.078304	-415.435792	-49.237171	80.289571	-18.061904	
1502	7.5100	783.791622	1220.737351	-91.070963	788.145075	1176.789398	-411.411679	823.127059	1284.954523	-259.402988	738.565168	1136.254275	-246.334677	576.082351	1106.173921	60.970417	685.794261	943.481788	-39.528280	569.265853	1069.984878	-547.184282	666.016800	932.050656	-418.415642	232.763791	1228.680253	-222.389493	366.738882	1189.771847	-402.021832	374.037916	1136.292372	-69.931869	387.702397	1119.225812	-385.531813	390.335576	1092.492844	-110.699592	276.185900	1251.082066	-186.261410	273.225074	1263.060108	-246.256716	300.648376	1057.161743	-55.895349	351.611948	1155.804505	-425.098544	319.430571	932.381045	-39.452399	339.462905	843.829078	-44.642926	314.526600	761.360246	-51.212315	375.245809	844.715276	-56.340334	296.693614	653.726072	-61.358136	287.601063	628.566906	-173.202282	238.026677	546.542860	-34.336640	221.560867	462.640286	-51.632436	166.330168	394.803438	-55.467922	246.200583	454.463602	-81.702824	127.100560	327.567237	-62.327715	75.981069	354.327791	-111.784386	202.086591	108.190423	-93.155238	132.182063	184.340536	-32.716915	404.774982	1055.363854	-440.330416	480.864070	1013.522726	-429.472672	501.981737	1036.906822	-408.580393	527.845339	936.841971	-428.261089	569.286129	826.925720	-395.911931	565.403133	812.236613	-275.987499	284.393838	571.627951	-388.604046	200.596751	574.720298	-344.268479	359.865336	453.713873	-408.435607	491.277673	747.196266	-416.318067	441.609492	677.615524	-399.386411	362.436157	637.507278	-399.151385	461.219323	660.861944	-370.081634	438.047982	424.193859	-346.140324	-156.809659	855.932088	-223.438875	-49.194980	80.107752	-415.454259	-49.265015	80.335015	-18.080619	
1503	7.5150	784.479911	1219.218766	-91.488980	788.046014	1174.438741	-411.223443	824.451547	1284.194056	-259.827118	738.721290	1135.993032	-246.885179	577.230980	1106.166950	61.201063	685.496919	943.274950	-39.771384	567.900671	1069.458615	-546.685605	665.228819	932.046041	-417.870127	233.617790	1230.882172	-223.425568	367.377616	1190.944166	-402.587778	372.757542	1139.574035	-69.988280	387.728486	1118.796880	-385.602702	389.857384	1095.391288	-110.051983	277.023057	1254.247130	-188.041100	275.257153	1265.387043	-246.339087	300.401300	1060.070373	-56.255495	350.895041	1156.725934	-425.668065	323.179884	934.033081	-40.478063	345.919375	846.243740	-46.682609	323.377748	763.043244	-52.523118	382.134579	848.281680	-57.024162	307.158485	654.437804	-62.938832	295.606703	630.608680	-173.492687	244.411914	550.441300	-35.532670	223.926258	466.891399	-53.132369	166.657023	401.654138	-56.085169	246.988605	458.807405	-85.005533	123.251244	335.382222	-62.744480	71.618821	363.066928	-111.802559	191.769040	113.496835	-95.304376	124.792146	191.817960	-33.083965	402.384445	1055.204787	-441.393443	477.717147	1012.111187	-431.014720	494.885319	1034.828730	-413.606404	523.459385	934.585970	-429.733971	563.453854	823.530812	-397.396180	560.343241	808.182100	-277.965830	285.052316	561.262109	-388.542715	201.058223	560.851219	-343.963300	365.879273	447.549626	-408.985116	486.919009	741.550699	-417.886521	439.112267	670.806024	-400.416885	361.067588	628.644140	-399.674216	459.471217	654.250848	-370.851841	445.442547	421.798453	-346.359007	-156.830098	856.007647	-223.487943	-49.207693	80.183799	-415.440777	-49.285685	80.452615	-18.096611	
1504	7.5200	785.235853	1217.825036	-91.946014	787.928414	1172.330379	-411.134360	825.623737	1283.602663	-260.067516	739.237558	1135.769259	-246.801559	578.442450	1106.319901	61.774490	685.335931	943.249512	-40.026333	566.335335	1068.923269	-546.069860	664.434217	931.900289	-417.363491	234.884586	1233.807837	-225.207201	368.661384	1191.709920	-402.342934	372.060510	1143.122038	-68.862281	387.764532	1118.314878	-385.646257	389.276673	1098.051856	-109.302864	278.034410	1257.131218	-189.829961	276.008282	1268.597935	-247.759650	300.499974	1062.987583	-56.502214	350.222724	1157.105688	-426.279104	326.837519	935.766616	-41.770493	352.732363	848.664295	-48.090204	332.512530	764.879453	-54.095046	388.111194	851.701927	-59.756510	317.244345	655.645783	-64.760494	304.217750	632.854919	-173.942008	251.461846	554.494064	-36.426886	227.577400	471.958542	-54.230569	167.793485	408.762299	-56.429307	250.080932	462.779166	-87.209940	120.492033	343.425330	-62.791597	68.829432	372.284575	-111.067526	183.109432	119.411098	-96.501207	118.194023	199.481396	-33.355627	399.681817	1054.096022	-442.284516	474.352039	1009.619782	-432.474569	496.639866	1032.316160	-412.470853	518.467333	931.249250	-431.368611	556.813374	819.063565	-398.216276	554.722477	803.224679	-280.110471	285.969698	549.986237	-388.322264	201.866599	546.465078	-343.313461	371.292949	440.763675	-409.632210	482.372206	735.198687	-419.713633	436.915836	663.165502	-401.554055	359.739634	619.081524	-399.832275	457.459689	647.683840	-371.809226	452.180112	418.255748	-347.171827	-156.669258	856.250163	-223.949465	-49.211456	80.252942	-415.410433	-49.312109	80.959150	-17.918440	
1505	7.5250	785.863614	1216.725096	-92.308593	787.893618	1170.238896	-411.261670	826.682745	1283.139739	-260.192886	739.971998	1135.357669	-247.164690	579.733446	1106.591697	62.660161	685.245311	943.072566	-40.197787	564.653961	1068.490705	-545.356534	663.731903	931.810093	-416.867747	236.034713	1236.274796	-227.290596	369.337629	1192.300242	-403.503676	370.895094	1146.400475	-68.569859	387.811421	1117.779447	-385.661466	389.001764	1100.362697	-108.235823	279.136629	1258.987185	-191.635647	277.317078	1270.296695	-250.210242	300.829661	1065.880318	-56.559799	349.368699	1156.938011	-426.786994	331.334797	937.176310	-42.774946	359.269099	851.183033	-49.786920	341.122048	766.553359	-56.229553	394.234749	855.102545	-61.589203	327.126889	657.283495	-66.522724	313.036893	635.457757	-174.797145	258.902936	558.265473	-37.282851	231.826913	477.119750	-55.050104	169.593745	415.835248	-56.473857	253.131657	467.149420	-88.795323	118.815749	351.461707	-62.568767	66.452135	382.655916	-109.648204	174.695328	125.615939	-96.778223	112.180498	207.176748	-33.659913	396.742587	1052.247636	-443.114326	470.589672	1006.296867	-434.004325	493.754372	1028.727313	-414.739281	511.268303	926.633861	-435.558830	549.642874	814.359339	-400.273397	548.512089	797.384507	-282.255132	286.837554	538.449248	-388.023369	202.944846	532.024135	-341.661960	375.870013	433.233569	-410.411920	477.851849	728.012901	-420.964333	434.458271	654.998765	-402.004581	358.513064	608.947786	-399.839395	455.526722	640.306652	-372.302737	458.417949	413.981794	-348.926406	-156.493766	856.331619	-223.549275	-49.198259	80.294014	-415.433845	-49.297249	81.123018	-17.928740	
1506	7.5300	786.543980	1215.390419	-92.585435	787.875999	1168.236612	-411.502262	827.617839	1282.883951	-260.295628	740.977021	1134.902148	-247.721610	581.051715	1106.879881	63.792954	685.205372	942.856637	-40.086541	562.900093	1068.117605	-544.421923	663.130269	931.846653	-416.342856	236.916177	1238.157053	-228.994080	370.407256	1192.386415	-403.870702	369.797662	1149.312281	-68.502482	387.870127	1117.190233	-385.647349	388.780991	1102.954392	-107.013126	280.971592	1259.982894	-193.737063	278.388398	1272.008838	-251.835367	301.540688	1068.511854	-56.431075	348.348029	1156.216113	-427.174994	335.913334	938.728251	-44.404580	365.107755	853.636636	-51.570111	350.064970	769.143827	-56.777475	400.398967	858.445958	-62.929053	336.342451	659.619068	-67.908061	321.742066	638.354826	-176.020413	266.336879	561.863890	-38.207740	236.152714	482.340471	-55.432797	171.821873	422.650904	-56.500145	256.332322	471.304041	-90.261355	117.587300	359.155346	-62.318041	66.190378	390.951455	-110.669834	166.909638	132.105470	-96.658539	106.633521	215.118164	-33.793209	393.623305	1049.726950	-443.888996	466.868567	1001.981934	-434.503935	490.501075	1024.508724	-417.127924	506.992103	922.212699	-434.706268	542.468184	808.903774	-401.878465	541.943577	791.165775	-284.255194	287.583006	526.555967	-387.043848	204.532295	517.642215	-339.235134	379.602067	425.024040	-411.552818	473.091371	720.552898	-421.871823	431.941253	646.321389	-402.243432	357.297382	598.301122	-399.478870	453.586765	632.284394	-372.550989	463.911544	408.670152	-351.556605	-156.259838	856.510932	-223.934574	-49.175512	80.278933	-415.474023	-49.294375	81.289099	-17.967174	
